Fly_normalized_Motion_pl06
version=1
nRows=14
nColumns=43
inDegrees=yes
endheader
time		pelvis_tilt		pelvis_list		pelvis_rotation		pelvis_tx		pelvis_ty		pelvis_tz		hip_flexion_r		hip_adduction_r		hip_rotation_r		knee_angle_r		ankle_angle_r		subtalar_angle_r		mtp_angle_r		hip_flexion_l		hip_adduction_l		hip_rotation_l		knee_angle_l		ankle_angle_l		subtalar_angle_l		mtp_angle_l		lumbar_extension		lumbar_bending		lumbar_rotation		neck_flexion		neck_lateral_bending		neck_rotation		arm_flex_r		arm_add_r		arm_rot_r		elbow_flex_r		pro_sup_r		wrist_flex_r		wrist_dev_r		hand_finger_flex_r		arm_flex_l		arm_add_l		arm_rot_l		elbow_flex_l		pro_sup_l		wrist_flex_l		wrist_dev_l		hand_finger_flex_l		
0.767045		2.259942		-13.700361		91.702574		0.009440		1.576593		1.100883		86.130140		-11.472492		-9.453216		-102.476251		-12.706023		-13.670474		11.668369		77.901619		-8.623447		-0.384998		-81.871069		-20.850323		-1.344681		-21.669763		-36.636158		-0.838594		5.831223		20.691664		-0.614712		-1.990447		56.050259		-52.168353		33.132744		48.232922		104.942485		-18.325215		13.783735		48.660866		90.277813		-60.797189		67.475714		56.443112		118.998840		-38.248784		7.574177		90.000210		
0.771136		2.224183		-13.699518		91.748649		0.009260		1.569313		1.091913		85.706834		-11.522767		-9.494096		-100.771464		-13.251423		-13.518623		12.183695		77.443952		-8.588930		-0.644666		-79.952547		-20.559119		-0.919102		-21.045816		-36.679829		-0.881271		6.332452		20.944943		-0.733794		-2.492835		51.418500		-53.675515		29.742474		49.291461		105.114247		-19.229356		13.675605		50.151667		87.146890		-61.845669		64.951943		56.292988		119.613577		-38.735223		7.656999		90.000210		
0.775227		2.202423		-13.695492		91.855726		0.009037		1.561793		1.082878		85.224105		-11.614665		-9.544401		-99.015240		-13.816020		-13.400116		12.722139		76.960763		-8.493907		-0.852301		-78.017120		-20.278645		-0.415980		-20.374809		-36.722125		-0.892709		6.812408		21.215992		-0.773544		-3.030837		46.429707		-55.085634		25.973139		50.369128		105.268314		-19.984735		13.615633		51.648104		83.989211		-62.890816		62.537387		56.113191		120.306643		-38.837696		7.672972		90.000210		
0.779318		2.208570		-13.796443		91.827739		0.008629		1.554042		1.073687		84.776793		-11.612292		-9.607552		-97.166026		-14.410017		-13.150494		13.414810		76.532771		-8.524358		-1.136016		-76.074516		-20.163744		-0.239763		-19.300935		-36.665804		-0.954324		8.102351		21.593140		-1.055950		-4.286844		39.221128		-56.985244		19.812099		52.165075		106.386635		-20.555242		13.450387		53.231208		80.005415		-62.667717		58.566813		55.354344		121.743972		-38.788988		7.651264		90.000210		
0.783409		2.206168		-13.771758		92.044831		0.008261		1.546183		1.064581		84.162608		-11.765090		-9.624963		-95.305522		-15.050238		-12.867296		13.579725		75.961472		-8.316932		-1.284117		-74.084400		-19.881731		0.251285		-18.661821		-36.719869		-0.837450		8.302682		21.798398		-1.196672		-4.491445		33.755840		-57.579928		15.438796		52.960085		106.358783		-20.997510		13.316787		53.843869		76.544459		-63.996242		56.199838		55.145948		122.106323		-39.064656		7.608303		90.000210		
0.787500		2.105473		-13.743339		92.077445		0.008017		1.538254		1.055320		83.534003		-11.795054		-9.541329		-93.401876		-15.703753		-12.561595		13.647442		75.280967		-8.221215		-1.572595		-72.056998		-19.635677		0.613376		-17.955358		-36.805969		-0.887396		8.654240		22.178236		-1.398514		-4.762343		27.794300		-58.086313		10.634347		53.885330		106.632820		-21.554691		12.996598		54.324328		72.521296		-65.154058		53.137734		54.873269		122.213100		-39.280515		7.691884		90.000210		
0.791591		2.182009		-13.805194		92.122419		0.007528		1.529904		1.045924		82.876144		-11.785199		-9.643970		-91.420832		-16.159642		-12.042472		13.605137		74.736106		-8.200831		-1.753909		-70.075364		-19.647376		0.609267		-16.957552		-36.773131		-0.736715		9.455866		22.538843		-1.925739		-5.466196		20.553417		-58.510434		4.418388		55.142540		107.462556		-21.718668		12.654325		54.628953		67.711518		-65.566111		48.819927		54.236223		123.067880		-39.291170		7.485372		90.000210		
0.795682		2.383175		-13.873352		92.220616		0.007010		1.521353		1.036445		82.138143		-11.744695		-9.860282		-89.380594		-16.501957		-11.415962		13.437518		74.219104		-8.218793		-1.836612		-68.111303		-19.780783		0.485059		-15.844904		-36.774058		-0.428229		10.245334		23.103943		-2.633385		-6.174932		13.155453		-58.502179		-2.092725		56.465538		108.276375		-21.522736		12.257462		54.435592		62.478523		-66.040604		44.076279		53.676879		124.060918		-39.166960		7.028988		90.000210		
0.799773		2.053452		-13.726915		92.026612		0.007080		1.513000		1.026888		81.346875		-11.623439		-9.522193		-87.394153		-17.032066		-11.017347		13.264191		73.206291		-8.216667		-2.439676		-66.010816		-19.745239		0.390176		-15.197875		-36.880710		-0.760707		10.406904		23.134777		-2.728087		-6.134691		7.719228		-57.829260		-6.252740		56.718571		108.459295		-22.215764		11.656590		53.712741		57.914759		-67.140736		41.099270		53.017499		122.801369		-39.264698		7.509600		90.000210		
0.803864		2.245701		-13.704007		92.053831		0.006776		1.504153		1.017184		80.432122		-11.493044		-9.743331		-85.282292		-17.294038		-10.349772		13.130195		72.527790		-8.338540		-2.614483		-64.037730		-20.055485		-0.042271		-14.459493		-36.966940		-0.478779		10.937610		23.763122		-3.401489		-6.480449		1.477181		-56.982117		-11.606297		57.565196		108.943990		-22.328871		11.092296		53.111196		51.806980		-67.879005		36.050246		52.478580		122.852279		-39.522210		6.987942		90.000210		
0.807955		2.284491		-13.598723		91.975138		0.006532		1.495166		1.007392		79.451145		-11.326621		-9.810368		-83.157479		-17.523702		-9.858839		13.010304		71.691445		-8.456093		-2.946445		-62.071706		-20.406400		-0.568810		-13.632780		-37.079209		-0.372854		11.344610		24.158056		-3.969821		-6.743587		-4.167841		-55.934882		-16.176239		58.172668		109.594061		-22.201385		10.506255		51.839609		45.405624		-68.529266		30.771896		51.869340		122.882371		-39.126991		6.708730		90.000210		
0.812045		2.572264		-13.420380		92.083781		0.006044		1.486214		0.997299		78.247564		-11.221769		-10.179522		-80.995501		-17.661838		-9.389204		12.987323		70.793719		-8.613450		-3.136366		-60.063409		-20.819166		-1.134672		-12.588672		-37.208193		0.088434		11.435361		24.451550		-4.416794		-6.355203		-8.447044		-54.508858		-19.982326		58.400408		110.181554		-21.216308		10.098235		49.833496		37.030613		-68.889918		22.936549		51.157955		123.482273		-38.654193		6.045762		90.000210		
0.816136		2.639840		-13.212833		91.889590		0.005958		1.476969		0.987205		77.080917		-10.909369		-10.283950		-78.789583		-17.916808		-9.095705		13.056541		69.786777		-8.898021		-3.615947		-58.102840		-21.294881		-2.111135		-11.870410		-37.333988		0.220218		11.222523		24.631259		-5.015472		-6.116189		-11.646763		-53.320179		-21.999007		58.287867		110.824689		-20.913882		9.523730		47.889070		27.591713		-69.472079		14.833688		50.692050		123.447011		-38.296240		5.586736		90.000210		
0.820227		2.618666		-12.964239		91.782983		0.005820		1.467513		0.977044		75.880830		-10.719617		-10.308031		-76.613553		-18.121388		-8.866979		13.158813		68.668617		-9.041555		-4.152978		-56.039460		-21.906938		-3.128156		-11.316819		-37.486620		0.265619		10.827309		24.846516		-5.128156		-5.561817		-14.459622		-51.921595		-23.771588		57.928986		110.924588		-21.019691		8.967621		46.267460		17.776590		-69.785538		6.444577		50.237889		123.283894		-38.078329		5.449131		90.000210		
